<svg width="326" height="324" viewBox="0 0 326 324" fill="none" xmlns="http://www.w3.org/2000/svg">
<ellipse cx="149.026" cy="147.036" rx="149.026" ry="147.036" transform="matrix(0.994891 0.100952 -0.0975007 0.995235 28.6721 0.536621)" fill="url(#paint0_radial_511_6360)"/>
<path d="M119.286 90.0068L121.769 90.2588L120.281 105.45L90.864 102.465L87.7149 122.795C89.6862 121.708 91.7855 120.956 94.0128 120.539C96.3037 120.128 98.6272 120.042 100.983 120.282C107.287 120.921 112.095 123.371 115.407 127.631C118.726 131.828 120.07 137.142 119.44 143.576C119.084 147.206 118.05 150.543 116.337 153.586C114.63 156.564 112.12 158.883 108.807 160.541C105.563 162.142 101.458 162.69 96.492 162.186C92.0985 161.74 88.3842 160.27 85.3491 157.775C82.3201 155.216 80.3449 151.091 79.4233 145.401L85.6089 144.292C85.8613 149.593 87.0081 153.311 89.0495 155.448C91.0908 157.585 93.5123 158.796 96.3139 159.08C100.262 159.481 103.395 158.351 105.713 155.692C108.101 152.975 109.589 148.623 110.175 142.636C110.693 137.349 110.191 132.956 108.669 129.456C107.217 125.9 104.199 123.889 99.6142 123.423C97.4493 123.204 95.1802 123.392 92.8069 123.987C90.4398 124.519 88.0452 125.659 85.6232 127.407L83.7973 126.354L88.7195 94.8176L112.406 97.221C114.698 97.4536 116.076 97.497 116.541 97.3511C117.075 97.1481 117.497 96.4511 117.807 95.2603L119.286 90.0068ZM177.215 133.517L176.625 139.536C176.026 145.651 174.642 150.914 172.474 155.326C170.305 159.737 167.441 163.049 163.88 165.261C160.326 167.409 156.193 168.244 151.481 167.766C146.705 167.281 142.784 165.629 139.716 162.809C136.718 159.931 134.585 156.113 133.315 151.352C132.045 146.592 131.709 141.154 132.308 135.039L132.898 129.02C133.497 122.905 134.878 117.674 137.04 113.326C139.209 108.915 142.038 105.631 145.529 103.477C149.089 101.265 153.257 100.401 158.033 100.886C162.745 101.364 166.631 103.045 169.693 105.929C172.76 108.749 174.929 112.539 176.199 117.3C177.475 121.996 177.814 127.402 177.215 133.517ZM168.605 125.889C169.329 118.5 168.733 113.1 166.816 109.69C164.9 106.279 161.872 104.363 157.733 103.943C153.595 103.523 150.255 104.793 147.714 107.751C145.174 110.71 143.542 115.884 142.818 123.272L140.918 142.667C140.188 150.12 140.781 155.551 142.697 158.962C144.614 162.373 147.642 164.288 151.78 164.708C155.919 165.128 159.259 163.859 161.799 160.9C164.34 157.942 165.975 152.736 166.705 145.284L168.605 125.889ZM216.021 120.665L215.731 123.627C215.5 125.983 214.744 128.126 213.461 130.054C212.243 131.989 210.584 133.494 208.486 134.567C206.457 135.584 204.042 135.95 201.24 135.665C198.502 135.387 196.206 134.543 194.35 133.133C192.501 131.659 191.167 129.851 190.348 127.709C189.529 125.567 189.235 123.318 189.466 120.962L189.756 118C189.987 115.643 190.708 113.529 191.921 111.658C193.139 109.723 194.795 108.251 196.887 107.241C198.986 106.167 201.404 105.769 204.142 106.047C206.943 106.331 209.237 107.207 211.022 108.675C212.878 110.086 214.215 111.862 215.034 114.003C215.923 116.088 216.252 118.308 216.021 120.665ZM238.096 109.975L240.421 111.851L198.494 171.571L196.065 169.781L238.096 109.975ZM210.201 118.048C210.469 115.309 210.047 113.047 208.936 111.262C207.825 109.476 206.155 108.471 203.927 108.245C201.698 108.018 199.898 108.672 198.526 110.205C197.154 111.739 196.333 113.875 196.065 116.614L195.382 123.588C195.107 126.391 195.494 128.682 196.541 130.46C197.589 132.239 199.227 133.242 201.456 133.468C203.684 133.694 205.516 133.044 206.952 131.517C208.388 129.99 209.243 127.825 209.517 125.023L210.201 118.048ZM247.325 160.508L247.035 163.47C246.804 165.827 246.048 167.97 244.766 169.898C243.547 171.833 241.889 173.337 239.79 174.411C237.761 175.427 235.346 175.793 232.544 175.509C229.806 175.231 227.51 174.387 225.655 172.976C223.805 171.502 222.471 169.694 221.652 167.553C220.833 165.411 220.539 163.162 220.77 160.805L221.06 157.843C221.291 155.487 222.013 153.373 223.225 151.501C224.443 149.567 226.099 148.094 228.191 147.084C230.29 146.011 232.708 145.613 235.446 145.891C238.248 146.175 240.541 147.051 242.327 148.519C244.182 149.929 245.519 151.705 246.338 153.847C247.227 155.931 247.556 158.152 247.325 160.508ZM241.505 157.892C241.773 155.153 241.352 152.891 240.24 151.105C239.129 149.32 237.459 148.314 235.231 148.088C233.002 147.862 231.202 148.516 229.83 150.049C228.458 151.582 227.638 153.718 227.369 156.457L226.686 163.432C226.411 166.234 226.798 168.525 227.846 170.304C228.893 172.083 230.531 173.085 232.76 173.311C234.988 173.537 236.82 172.887 238.256 171.36C239.692 169.833 240.547 167.669 240.821 164.866L241.505 157.892Z" fill="#22B8E0"/>
<path d="M99.1469 191.644C98.2943 191.557 97.5526 191.261 96.9219 190.754C96.2912 190.248 95.8212 189.558 95.512 188.684C95.2027 187.81 95.1065 186.777 95.2233 185.585C95.3414 184.379 95.639 183.381 96.116 182.592C96.5981 181.798 97.1991 181.224 97.919 180.868C98.6393 180.508 99.4164 180.371 100.25 180.455C100.886 180.52 101.398 180.681 101.787 180.94C102.176 181.193 102.476 181.483 102.687 181.809C102.898 182.13 103.056 182.43 103.162 182.707L103.268 182.718L103.799 177.303L106.364 177.564L104.946 192.04L102.43 191.784L102.598 190.074L102.442 190.058C102.284 190.309 102.066 190.57 101.787 190.841C101.509 191.108 101.155 191.324 100.725 191.49C100.295 191.656 99.7687 191.707 99.1469 191.644ZM100.066 189.617C100.608 189.672 101.084 189.573 101.494 189.319C101.905 189.061 102.235 188.678 102.484 188.171C102.734 187.663 102.893 187.058 102.962 186.356C103.031 185.654 102.992 185.033 102.844 184.495C102.702 183.957 102.454 183.525 102.101 183.199C101.752 182.873 101.302 182.682 100.751 182.626C100.181 182.569 99.6908 182.669 99.2801 182.927C98.8695 183.185 98.542 183.566 98.2976 184.069C98.0532 184.573 97.898 185.161 97.832 185.835C97.7655 186.514 97.8028 187.129 97.9437 187.681C98.0899 188.229 98.3387 188.676 98.6903 189.021C99.047 189.361 99.5057 189.56 100.066 189.617ZM112.455 193.016C111.367 192.905 110.45 192.584 109.703 192.051C108.961 191.514 108.419 190.807 108.076 189.93C107.735 189.048 107.619 188.04 107.731 186.904C107.84 185.787 108.148 184.829 108.655 184.028C109.166 183.223 109.829 182.624 110.643 182.231C111.458 181.833 112.383 181.687 113.419 181.792C114.088 181.86 114.709 182.032 115.281 182.309C115.859 182.582 116.354 182.965 116.767 183.459C117.185 183.954 117.492 184.561 117.688 185.28C117.884 185.995 117.936 186.828 117.842 187.78L117.765 188.565L108.869 187.662L109.038 185.937L115.483 186.591C115.526 186.101 115.463 185.654 115.293 185.251C115.123 184.844 114.863 184.511 114.513 184.251C114.167 183.993 113.749 183.838 113.259 183.789C112.737 183.736 112.265 183.816 111.844 184.03C111.424 184.24 111.083 184.539 110.822 184.926C110.565 185.309 110.411 185.743 110.359 186.228L110.211 187.734C110.149 188.365 110.212 188.919 110.398 189.395C110.585 189.866 110.874 190.243 111.265 190.525C111.656 190.803 112.13 190.97 112.686 191.026C113.058 191.064 113.4 191.046 113.712 190.973C114.024 190.895 114.301 190.764 114.542 190.579C114.784 190.394 114.976 190.154 115.12 189.86L117.482 190.371C117.269 190.987 116.928 191.509 116.457 191.937C115.992 192.361 115.42 192.669 114.74 192.862C114.06 193.05 113.299 193.101 112.455 193.016ZM128.411 194.613C127.558 194.527 126.816 194.23 126.186 193.724C125.555 193.217 125.085 192.527 124.776 191.653C124.466 190.779 124.37 189.747 124.487 188.554C124.605 187.348 124.903 186.35 125.38 185.561C125.862 184.768 126.463 184.193 127.183 183.838C127.903 183.478 128.68 183.34 129.514 183.425C130.15 183.489 130.662 183.651 131.051 183.909C131.44 184.163 131.74 184.453 131.95 184.779C132.162 185.1 132.32 185.399 132.426 185.676L132.532 185.687L133.063 180.273L135.628 180.533L134.209 195.009L131.694 194.754L131.861 193.043L131.706 193.027C131.548 193.278 131.33 193.539 131.051 193.811C130.773 194.077 130.419 194.294 129.989 194.459C129.558 194.625 129.033 194.677 128.411 194.613ZM129.33 192.587C129.872 192.641 130.348 192.542 130.758 192.289C131.169 192.031 131.499 191.648 131.748 191.14C131.998 190.632 132.157 190.027 132.226 189.325C132.294 188.623 132.255 188.003 132.108 187.464C131.966 186.926 131.718 186.494 131.365 186.168C131.016 185.843 130.566 185.652 130.015 185.596C129.445 185.538 128.955 185.638 128.544 185.896C128.133 186.154 127.806 186.535 127.561 187.039C127.317 187.542 127.162 188.131 127.096 188.805C127.029 189.483 127.067 190.099 127.208 190.651C127.354 191.199 127.603 191.645 127.954 191.99C128.311 192.331 128.769 192.53 129.33 192.587ZM141.719 195.985C140.631 195.875 139.713 195.553 138.966 195.021C138.224 194.484 137.682 193.777 137.34 192.9C136.998 192.018 136.883 191.009 136.994 189.873C137.104 188.757 137.412 187.798 137.918 186.997C138.43 186.193 139.093 185.594 139.907 185.2C140.721 184.802 141.647 184.656 142.683 184.761C143.352 184.829 143.973 185.001 144.545 185.278C145.122 185.551 145.618 185.935 146.031 186.429C146.449 186.923 146.756 187.53 146.951 188.25C147.148 188.964 147.199 189.798 147.106 190.75L147.029 191.534L138.133 190.631L138.302 188.907L144.746 189.561C144.79 189.07 144.726 188.623 144.556 188.221C144.387 187.813 144.127 187.48 143.777 187.221C143.431 186.962 143.013 186.808 142.523 186.758C142 186.705 141.529 186.786 141.108 187C140.688 187.209 140.347 187.508 140.085 187.896C139.829 188.279 139.675 188.713 139.622 189.198L139.475 190.703C139.413 191.335 139.475 191.888 139.662 192.364C139.849 192.835 140.138 193.212 140.529 193.494C140.92 193.772 141.394 193.939 141.95 193.996C142.322 194.033 142.664 194.016 142.975 193.943C143.288 193.865 143.564 193.733 143.806 193.549C144.048 193.364 144.24 193.124 144.383 192.829L146.745 193.34C146.533 193.956 146.191 194.478 145.721 194.906C145.256 195.33 144.684 195.639 144.004 195.832C143.324 196.02 142.562 196.071 141.719 195.985ZM158.091 189.366L155.734 189.383C155.691 189.141 155.597 188.908 155.453 188.684C155.313 188.46 155.113 188.271 154.852 188.116C154.591 187.961 154.263 187.864 153.867 187.823C153.335 187.769 152.876 187.839 152.491 188.034C152.11 188.228 151.904 188.509 151.873 188.877C151.837 189.193 151.927 189.461 152.144 189.683C152.364 189.905 152.744 190.108 153.283 190.291L155.095 190.875C156.101 191.201 156.829 191.629 157.282 192.16C157.739 192.692 157.931 193.347 157.86 194.125C157.788 194.808 157.529 195.391 157.082 195.874C156.64 196.352 156.056 196.702 155.331 196.924C154.605 197.145 153.79 197.21 152.885 197.118C151.557 196.983 150.515 196.597 149.759 195.959C149.004 195.316 148.597 194.487 148.54 193.472L151.057 193.485C151.123 193.986 151.327 194.381 151.669 194.668C152.012 194.955 152.478 195.128 153.067 195.188C153.675 195.25 154.175 195.174 154.567 194.962C154.963 194.75 155.179 194.46 155.215 194.092C155.246 193.781 155.151 193.512 154.931 193.285C154.715 193.059 154.363 192.866 153.874 192.707L152.061 192.13C151.041 191.808 150.307 191.365 149.858 190.8C149.409 190.231 149.226 189.551 149.308 188.76C149.369 188.09 149.607 187.529 150.023 187.076C150.443 186.619 150.996 186.29 151.682 186.088C152.373 185.882 153.152 185.823 154.019 185.911C155.291 186.04 156.265 186.413 156.942 187.029C157.624 187.645 158.007 188.424 158.091 189.366ZM164.364 198.283C163.28 198.173 162.373 197.841 161.643 197.286C160.917 196.732 160.385 196.014 160.048 195.132C159.716 194.247 159.604 193.255 159.712 192.157C159.82 191.054 160.127 190.103 160.634 189.302C161.141 188.497 161.804 187.898 162.622 187.505C163.446 187.108 164.388 186.964 165.448 187.071C166.329 187.16 167.093 187.402 167.739 187.796C168.391 188.186 168.89 188.696 169.238 189.326C169.586 189.951 169.749 190.658 169.729 191.446L167.285 191.198C167.237 190.665 167.044 190.205 166.706 189.819C166.373 189.428 165.898 189.201 165.281 189.139C164.758 189.086 164.285 189.18 163.862 189.423C163.439 189.661 163.091 190.03 162.818 190.531C162.55 191.032 162.381 191.647 162.309 192.378C162.237 193.118 162.283 193.765 162.447 194.319C162.612 194.869 162.876 195.308 163.239 195.635C163.607 195.958 164.057 196.146 164.589 196.2C164.966 196.238 165.31 196.202 165.621 196.09C165.936 195.975 166.209 195.791 166.438 195.538C166.668 195.285 166.839 194.967 166.953 194.584L169.398 194.832C169.261 195.594 168.968 196.252 168.519 196.806C168.07 197.355 167.493 197.763 166.787 198.029C166.081 198.291 165.273 198.375 164.364 198.283ZM178.499 194.892L179.116 188.601L181.674 188.86L180.61 199.717L178.13 199.466L178.319 197.536L178.206 197.525C177.901 198.108 177.45 198.564 176.851 198.893C176.258 199.223 175.553 199.347 174.738 199.264C174.027 199.192 173.414 198.97 172.898 198.599C172.388 198.224 172.009 197.717 171.763 197.078C171.517 196.434 171.436 195.679 171.521 194.812L172.198 187.899L174.756 188.158L174.118 194.675C174.05 195.363 174.185 195.929 174.522 196.373C174.859 196.816 175.334 197.069 175.946 197.131C176.323 197.169 176.697 197.114 177.069 196.967C177.44 196.819 177.756 196.575 178.018 196.235C178.285 195.891 178.445 195.443 178.499 194.892ZM188.024 200.684C186.936 200.573 186.019 200.252 185.272 199.719C184.53 199.182 183.988 198.475 183.645 197.598C183.304 196.716 183.188 195.708 183.3 194.572C183.409 193.455 183.717 192.497 184.224 191.696C184.735 190.891 185.398 190.292 186.212 189.899C187.027 189.501 187.952 189.355 188.988 189.46C189.657 189.528 190.278 189.7 190.85 189.977C191.428 190.25 191.923 190.633 192.336 191.127C192.754 191.622 193.061 192.229 193.257 192.948C193.453 193.663 193.505 194.496 193.411 195.448L193.334 196.233L184.438 195.33L184.607 193.605L191.052 194.259C191.095 193.769 191.032 193.322 190.862 192.919C190.692 192.512 190.432 192.179 190.082 191.919C189.736 191.661 189.318 191.506 188.828 191.457C188.306 191.404 187.834 191.484 187.413 191.698C186.993 191.908 186.652 192.207 186.391 192.594C186.134 192.977 185.98 193.411 185.928 193.896L185.78 195.402C185.718 196.033 185.781 196.587 185.967 197.063C186.154 197.534 186.443 197.911 186.834 198.193C187.225 198.471 187.699 198.638 188.255 198.694C188.627 198.732 188.969 198.714 189.281 198.641C189.593 198.563 189.87 198.432 190.111 198.247C190.353 198.062 190.545 197.822 190.689 197.528L193.051 198.039C192.838 198.655 192.497 199.177 192.026 199.605C191.561 200.029 190.989 200.337 190.309 200.53C189.629 200.718 188.868 200.769 188.024 200.684ZM198.216 195.079L197.593 201.441L195.035 201.181L196.099 190.324L198.544 190.572L198.363 192.417L198.49 192.43C198.799 191.847 199.245 191.405 199.826 191.102C200.412 190.8 201.111 190.69 201.921 190.772C202.67 190.848 203.307 191.074 203.831 191.451C204.36 191.829 204.748 192.337 204.995 192.976C205.246 193.615 205.327 194.368 205.237 195.235L204.56 202.148L202.002 201.888L202.641 195.371C202.712 194.645 202.579 194.058 202.242 193.61C201.91 193.162 201.415 192.905 200.755 192.838C200.308 192.793 199.9 192.851 199.532 193.014C199.169 193.172 198.871 193.425 198.637 193.773C198.408 194.12 198.268 194.556 198.216 195.079ZM213.644 192.104L213.45 194.083L207.211 193.45L207.404 191.471L213.644 192.104ZM209.2 189.026L211.758 189.286L210.759 199.479C210.725 199.823 210.751 200.092 210.837 200.286C210.928 200.476 211.057 200.613 211.225 200.697C211.393 200.78 211.583 200.833 211.795 200.854C211.955 200.871 212.102 200.874 212.236 200.863C212.375 200.854 212.481 200.843 212.553 200.831L212.788 202.875C212.647 202.909 212.446 202.941 212.187 202.971C211.931 203.003 211.622 203.005 211.258 202.977C210.616 202.931 210.048 202.776 209.555 202.512C209.063 202.243 208.689 201.867 208.431 201.384C208.179 200.901 208.088 200.321 208.16 199.643L209.2 189.026ZM219.316 203.859C218.256 203.752 217.36 203.425 216.629 202.88C215.897 202.334 215.358 201.62 215.012 200.738C214.67 199.856 214.554 198.855 214.664 197.733C214.774 196.612 215.082 195.651 215.589 194.85C216.1 194.05 216.767 193.456 217.59 193.069C218.413 192.681 219.354 192.541 220.414 192.649C221.474 192.756 222.37 193.083 223.102 193.628C223.833 194.173 224.37 194.889 224.711 195.776C225.057 196.663 225.175 197.667 225.065 198.789C224.955 199.91 224.645 200.868 224.134 201.664C223.628 202.46 222.963 203.051 222.14 203.439C221.317 203.827 220.376 203.967 219.316 203.859ZM219.531 201.811C220.106 201.869 220.602 201.76 221.019 201.483C221.437 201.202 221.766 200.802 222.007 200.284C222.253 199.767 222.408 199.178 222.473 198.518C222.538 197.854 222.5 197.243 222.359 196.687C222.224 196.125 221.979 195.665 221.624 195.306C221.269 194.946 220.804 194.737 220.23 194.679C219.641 194.619 219.135 194.729 218.713 195.01C218.295 195.291 217.963 195.693 217.717 196.215C217.476 196.734 217.323 197.325 217.258 197.989C217.193 198.649 217.229 199.257 217.365 199.813C217.505 200.37 217.753 200.828 218.108 201.188C218.468 201.543 218.942 201.751 219.531 201.811ZM101.488 209.387L100.865 215.749L98.3068 215.489L99.725 201.013L102.226 201.267L101.691 206.731L101.818 206.744C102.133 206.157 102.573 205.714 103.14 205.414C103.712 205.111 104.413 205.001 105.242 205.085C105.996 205.161 106.637 205.386 107.167 205.759C107.697 206.131 108.085 206.637 108.331 207.276C108.583 207.915 108.666 208.673 108.58 209.55L107.902 216.463L105.345 216.203L105.983 209.686C106.055 208.956 105.922 208.369 105.585 207.925C105.253 207.478 104.75 207.22 104.076 207.151C103.624 207.105 103.209 207.163 102.832 207.325C102.46 207.482 102.154 207.734 101.916 208.081C101.682 208.429 101.539 208.864 101.488 209.387ZM113.611 217.263C112.924 217.194 112.316 217.008 111.789 216.707C111.267 216.402 110.87 215.991 110.597 215.473C110.329 214.955 110.23 214.341 110.299 213.629C110.359 213.017 110.522 212.522 110.788 212.144C111.053 211.766 111.393 211.477 111.807 211.277C112.222 211.076 112.68 210.939 113.182 210.866C113.689 210.789 114.209 210.749 114.742 210.746C115.385 210.745 115.906 210.738 116.307 210.727C116.708 210.71 117.004 210.655 117.194 210.56C117.389 210.46 117.499 210.288 117.523 210.043L117.527 210.001C117.579 209.468 117.462 209.04 117.175 208.716C116.888 208.392 116.448 208.199 115.854 208.139C115.228 208.076 114.717 208.162 114.323 208.398C113.933 208.634 113.657 208.932 113.493 209.292L111.138 208.71C111.391 208.07 111.756 207.55 112.233 207.151C112.71 206.747 113.273 206.466 113.921 206.308C114.57 206.146 115.273 206.103 116.032 206.18C116.555 206.233 117.069 206.347 117.575 206.522C118.082 206.697 118.535 206.948 118.936 207.274C119.337 207.596 119.644 208.01 119.856 208.517C120.073 209.024 120.146 209.638 120.075 210.359L119.363 217.626L116.904 217.376L117.051 215.885L116.966 215.876C116.781 216.162 116.534 216.423 116.226 216.658C115.922 216.889 115.551 217.063 115.111 217.18C114.677 217.293 114.177 217.321 113.611 217.263ZM114.46 215.451C114.973 215.503 115.428 215.447 115.825 215.282C116.222 215.113 116.539 214.869 116.775 214.55C117.015 214.232 117.155 213.873 117.194 213.472L117.32 212.193C117.233 212.251 117.09 212.298 116.892 212.335C116.698 212.372 116.481 212.4 116.241 212.419C116.002 212.437 115.765 212.451 115.531 212.461C115.297 212.471 115.094 212.479 114.922 212.485C114.535 212.498 114.185 212.548 113.872 212.635C113.559 212.723 113.305 212.863 113.11 213.058C112.915 213.247 112.802 213.507 112.77 213.837C112.723 214.308 112.861 214.682 113.181 214.957C113.501 215.232 113.928 215.397 114.46 215.451ZM131.296 210.77L128.939 210.788C128.896 210.545 128.803 210.312 128.658 210.088C128.518 209.865 128.318 209.675 128.057 209.52C127.797 209.365 127.468 209.268 127.073 209.228C126.54 209.174 126.082 209.244 125.696 209.438C125.316 209.632 125.11 209.914 125.078 210.282C125.043 210.597 125.133 210.865 125.349 211.087C125.57 211.31 125.95 211.512 126.488 211.695L128.301 212.279C129.306 212.605 130.035 213.033 130.487 213.565C130.944 214.096 131.137 214.751 131.065 215.529C130.994 216.212 130.734 216.795 130.287 217.278C129.846 217.757 129.262 218.107 128.536 218.328C127.81 218.549 126.995 218.614 126.091 218.523C124.762 218.388 123.72 218.001 122.964 217.363C122.209 216.72 121.803 215.891 121.745 214.876L124.263 214.889C124.328 215.391 124.532 215.785 124.875 216.072C125.218 216.359 125.684 216.532 126.273 216.592C126.88 216.654 127.38 216.578 127.772 216.366C128.169 216.154 128.385 215.864 128.421 215.497C128.451 215.186 128.356 214.917 128.136 214.69C127.92 214.463 127.568 214.27 127.079 214.111L125.266 213.535C124.246 213.212 123.512 212.769 123.063 212.205C122.614 211.635 122.431 210.955 122.514 210.164C122.574 209.495 122.813 208.933 123.228 208.481C123.649 208.024 124.202 207.694 124.888 207.493C125.579 207.287 126.358 207.228 127.224 207.316C128.496 207.445 129.471 207.817 130.148 208.433C130.829 209.05 131.212 209.829 131.296 210.77ZM139.339 208.688L139.145 210.667L132.906 210.034L133.1 208.055L139.339 208.688ZM134.895 205.61L137.453 205.869L136.454 216.062C136.421 216.406 136.447 216.675 136.532 216.869C136.623 217.059 136.752 217.196 136.92 217.28C137.088 217.364 137.278 217.416 137.49 217.438C137.65 217.454 137.797 217.457 137.932 217.447C138.071 217.437 138.176 217.426 138.249 217.415L138.484 219.459C138.343 219.492 138.142 219.524 137.882 219.555C137.627 219.586 137.317 219.588 136.954 219.561C136.311 219.514 135.744 219.359 135.251 219.095C134.759 218.826 134.384 218.45 134.127 217.967C133.874 217.485 133.784 216.905 133.855 216.226L134.895 205.61ZM143.516 220.298C142.829 220.228 142.221 220.043 141.694 219.742C141.172 219.437 140.775 219.025 140.502 218.507C140.234 217.99 140.135 217.375 140.204 216.664C140.265 216.051 140.427 215.556 140.693 215.178C140.958 214.801 141.298 214.512 141.712 214.311C142.127 214.11 142.585 213.974 143.087 213.901C143.594 213.824 144.114 213.784 144.647 213.781C145.29 213.779 145.811 213.773 146.212 213.761C146.613 213.745 146.909 213.689 147.099 213.594C147.294 213.495 147.404 213.323 147.428 213.078L147.432 213.035C147.484 212.503 147.367 212.075 147.08 211.75C146.793 211.426 146.353 211.234 145.759 211.174C145.133 211.11 144.622 211.196 144.228 211.432C143.839 211.669 143.562 211.967 143.398 212.326L141.043 211.745C141.296 211.104 141.661 210.584 142.138 210.185C142.615 209.782 143.178 209.501 143.826 209.343C144.475 209.18 145.178 209.137 145.937 209.214C146.46 209.267 146.974 209.381 147.48 209.557C147.987 209.732 148.44 209.982 148.841 210.309C149.243 210.63 149.549 211.044 149.761 211.551C149.978 212.059 150.051 212.673 149.98 213.394L149.268 220.66L146.81 220.411L146.956 218.919L146.871 218.911C146.686 219.196 146.439 219.457 146.131 219.692C145.827 219.923 145.456 220.097 145.016 220.214C144.582 220.327 144.082 220.355 143.516 220.298ZM144.365 218.485C144.878 218.537 145.333 218.481 145.73 218.317C146.127 218.148 146.444 217.904 146.68 217.585C146.92 217.267 147.06 216.907 147.099 216.507L147.225 215.227C147.138 215.285 146.995 215.333 146.797 215.369C146.603 215.407 146.386 215.435 146.146 215.453C145.907 215.472 145.67 215.486 145.436 215.496C145.202 215.505 144.999 215.513 144.827 215.519C144.44 215.532 144.09 215.583 143.777 215.67C143.464 215.757 143.21 215.898 143.015 216.092C142.82 216.282 142.707 216.542 142.675 216.872C142.629 217.343 142.766 217.716 143.086 217.991C143.406 218.266 143.833 218.431 144.365 218.485ZM161.56 222.122C160.472 222.011 159.554 221.69 158.807 221.157C158.065 220.62 157.523 219.913 157.181 219.036C156.839 218.154 156.724 217.145 156.835 216.01C156.945 214.893 157.253 213.934 157.759 213.134C158.271 212.329 158.934 211.73 159.748 211.337C160.562 210.939 161.488 210.792 162.524 210.897C163.193 210.965 163.814 211.138 164.386 211.415C164.964 211.688 165.459 212.071 165.872 212.565C166.29 213.059 166.597 213.666 166.792 214.386C166.989 215.101 167.04 215.934 166.947 216.886L166.87 217.67L157.974 216.768L158.143 215.043L164.587 215.697C164.631 215.206 164.567 214.76 164.397 214.357C164.228 213.95 163.968 213.616 163.618 213.357C163.272 213.098 162.854 212.944 162.364 212.894C161.841 212.841 161.37 212.922 160.949 213.136C160.529 213.346 160.188 213.644 159.926 214.032C159.67 214.415 159.516 214.849 159.463 215.334L159.316 216.84C159.254 217.471 159.316 218.025 159.503 218.501C159.69 218.972 159.979 219.348 160.37 219.631C160.761 219.908 161.235 220.076 161.791 220.132C162.163 220.17 162.505 220.152 162.816 220.079C163.129 220.001 163.405 219.87 163.647 219.685C163.889 219.5 164.081 219.26 164.224 218.965L166.586 219.476C166.374 220.092 166.032 220.615 165.562 221.043C165.097 221.467 164.525 221.775 163.845 221.968C163.165 222.156 162.403 222.207 161.56 222.122ZM172.547 208.402L171.129 222.878L168.571 222.619L169.989 208.143L172.547 208.402ZM178.667 223.643L178.852 221.749L184.359 217.332C184.887 216.895 185.329 216.505 185.687 216.16C186.044 215.816 186.32 215.475 186.515 215.138C186.709 214.801 186.826 214.432 186.866 214.031C186.911 213.574 186.845 213.173 186.67 212.826C186.495 212.476 186.235 212.192 185.89 211.976C185.544 211.76 185.141 211.629 184.679 211.582C184.204 211.534 183.777 211.591 183.4 211.752C183.023 211.909 182.718 212.156 182.485 212.495C182.257 212.833 182.118 213.25 182.07 213.745L179.575 213.491C179.665 212.573 179.953 211.795 180.439 211.159C180.925 210.523 181.553 210.056 182.325 209.758C183.101 209.461 183.967 209.361 184.923 209.458C185.893 209.557 186.728 209.825 187.428 210.262C188.127 210.699 188.648 211.254 188.992 211.927C189.339 212.6 189.474 213.342 189.394 214.152C189.341 214.694 189.185 215.216 188.927 215.718C188.668 216.22 188.247 216.763 187.661 217.346C187.081 217.929 186.278 218.626 185.252 219.436L182.509 221.72L182.499 221.819L188.802 222.459L188.587 224.65L178.667 223.643ZM196.15 225.617C195.099 225.511 194.184 225.239 193.403 224.803C192.628 224.367 192.039 223.82 191.638 223.16C191.241 222.497 191.084 221.774 191.165 220.992C191.22 220.384 191.406 219.839 191.725 219.357C192.043 218.876 192.447 218.488 192.937 218.195C193.433 217.898 193.968 217.731 194.542 217.694L194.552 217.595C193.824 217.355 193.258 216.914 192.855 216.274C192.456 215.629 192.298 214.916 192.379 214.134C192.447 213.389 192.72 212.745 193.196 212.204C193.673 211.662 194.292 211.261 195.055 211C195.819 210.735 196.669 210.65 197.607 210.745C198.535 210.839 199.345 211.093 200.037 211.506C200.734 211.914 201.264 212.432 201.626 213.059C201.993 213.686 202.14 214.372 202.067 215.117C201.99 215.899 201.689 216.566 201.164 217.117C200.644 217.664 200.011 217.983 199.265 218.074L199.255 218.173C199.811 218.324 200.299 218.595 200.717 218.985C201.141 219.37 201.462 219.831 201.681 220.367C201.904 220.904 201.986 221.476 201.926 222.084C201.85 222.867 201.55 223.543 201.028 224.113C200.507 224.679 199.823 225.098 198.978 225.369C198.138 225.64 197.195 225.723 196.15 225.617ZM196.348 223.596C196.889 223.651 197.369 223.606 197.788 223.463C198.207 223.315 198.543 223.083 198.798 222.766C199.053 222.449 199.204 222.07 199.252 221.627C199.293 221.165 199.213 220.745 199.012 220.368C198.816 219.986 198.525 219.674 198.14 219.43C197.76 219.187 197.313 219.039 196.799 218.987C196.281 218.934 195.809 218.989 195.384 219.15C194.959 219.312 194.612 219.56 194.341 219.894C194.076 220.224 193.923 220.62 193.882 221.082C193.834 221.525 193.904 221.927 194.092 222.289C194.281 222.646 194.566 222.939 194.948 223.168C195.335 223.398 195.801 223.54 196.348 223.596ZM196.994 217.001C197.437 217.046 197.836 216.996 198.193 216.851C198.554 216.707 198.85 216.485 199.079 216.184C199.308 215.884 199.446 215.524 199.492 215.105C199.527 214.69 199.464 214.317 199.301 213.987C199.139 213.651 198.894 213.382 198.567 213.177C198.24 212.968 197.853 212.84 197.406 212.795C196.949 212.749 196.537 212.795 196.172 212.934C195.811 213.069 195.519 213.284 195.295 213.58C195.076 213.872 194.949 214.226 194.913 214.641C194.867 215.06 194.925 215.439 195.087 215.779C195.254 216.115 195.5 216.392 195.826 216.611C196.157 216.825 196.546 216.955 196.994 217.001ZM211.289 211.648L204.928 228.507L202.688 228.279L209.049 211.421L211.289 211.648ZM211.409 226.966L211.594 225.071L217.101 220.654C217.629 220.218 218.071 219.827 218.429 219.483C218.786 219.138 219.062 218.797 219.257 218.46C219.451 218.123 219.569 217.754 219.608 217.354C219.653 216.897 219.587 216.495 219.412 216.149C219.237 215.798 218.977 215.514 218.632 215.299C218.286 215.083 217.883 214.951 217.421 214.905C216.946 214.856 216.519 214.913 216.142 215.074C215.765 215.231 215.46 215.479 215.227 215.817C214.999 216.155 214.86 216.572 214.812 217.067L212.317 216.814C212.407 215.895 212.695 215.117 213.181 214.481C213.667 213.845 214.295 213.379 215.067 213.081C215.843 212.784 216.709 212.683 217.665 212.781C218.636 212.879 219.47 213.147 220.17 213.584C220.869 214.022 221.39 214.577 221.734 215.249C222.082 215.922 222.216 216.664 222.136 217.475C222.083 218.017 221.928 218.538 221.669 219.041C221.41 219.543 220.989 220.085 220.403 220.668C219.823 221.252 219.02 221.948 217.994 222.758L215.251 225.043L215.241 225.141L221.544 225.781L221.329 227.972L211.409 226.966Z" fill="#43C4E6"/>
<defs>
<radialGradient id="paint0_radial_511_6360" cx="0" cy="0" r="1" gradientUnits="userSpaceOnUse" gradientTransform="translate(149.026 147.036) rotate(90) scale(147.036 149.026)">
<stop offset="0.566497"/>
<stop offset="0.816505" stop-color="#CB8DF1" stop-opacity="0.55"/>
<stop offset="0.894633" stop-color="#E9E0EE" stop-opacity="0.95"/>
<stop offset="0.998803" stop-color="#CB8DF1" stop-opacity="0.5"/>
</radialGradient>
</defs>
</svg>
