<svg width="326" height="318" viewBox="0 0 326 318" fill="none" xmlns="http://www.w3.org/2000/svg">
<ellipse cx="162.601" cy="158.57" rx="149" ry="144.5" transform="rotate(5.69378 162.601 158.57)" fill="url(#paint0_radial_1170_260)"/>
<path d="M119.242 88.2691L121.725 88.5167L120.211 103.705L90.7888 100.772L87.6043 121.1C89.5781 120.011 91.6794 119.255 93.9082 118.834C96.2007 118.42 98.525 118.33 100.881 118.565C107.186 119.194 111.992 121.634 115.298 125.887C118.611 130.077 119.946 135.387 119.305 141.82C118.943 145.45 117.903 148.787 116.184 151.831C114.472 154.812 111.957 157.134 108.64 158.797C105.393 160.403 101.285 160.958 96.3181 160.463C91.9239 160.025 88.2107 158.561 85.1787 156.072C82.1531 153.519 80.1841 149.4 79.2717 143.713L85.4613 142.594C85.7049 147.892 86.8459 151.608 88.8844 153.74C90.9228 155.873 93.3431 157.079 96.1452 157.358C100.094 157.752 103.23 156.618 105.553 153.955C107.947 151.235 109.442 146.882 110.039 140.896C110.566 135.61 110.071 131.219 108.555 127.723C107.108 124.17 104.092 122.165 99.5067 121.708C97.3415 121.492 95.0712 121.684 92.6961 122.283C90.3272 122.819 87.9299 123.963 85.5042 125.715L83.6793 124.664L88.6564 93.1306L112.347 95.4927C114.64 95.7212 116.018 95.7622 116.483 95.6156C117.018 95.4117 117.441 94.7142 117.753 93.5233L119.242 88.2691ZM177.117 131.665L176.517 137.683C175.907 143.797 174.514 149.061 172.338 153.475C170.161 157.888 167.29 161.204 163.724 163.421C160.165 165.575 156.029 166.416 151.317 165.947C146.54 165.47 142.62 163.825 139.556 161.011C136.562 158.14 134.434 154.326 133.172 149.57C131.91 144.813 131.583 139.378 132.193 133.264L132.793 127.246C133.402 121.132 134.792 115.9 136.963 111.55C139.139 107.136 141.975 103.849 145.471 101.69C149.036 99.4723 153.207 98.6018 157.984 99.078C162.696 99.5479 166.581 101.222 169.639 104.099C172.703 106.913 174.866 110.698 176.128 115.455C177.397 120.148 177.727 125.551 177.117 131.665ZM168.518 124.054C169.254 116.667 168.667 111.27 166.755 107.864C164.844 104.457 161.818 102.548 157.679 102.135C153.539 101.722 150.196 102.997 147.65 105.959C145.104 108.921 143.462 114.095 142.726 121.483L140.792 140.875C140.049 148.326 140.634 153.754 142.545 157.161C144.456 160.567 147.482 162.477 151.621 162.89C155.761 163.302 159.104 162.028 161.65 159.066C164.197 156.104 165.841 150.897 166.584 143.446L168.518 124.054ZM215.959 118.751L215.663 121.712C215.428 124.069 214.668 126.212 213.382 128.142C212.16 130.078 210.498 131.585 208.397 132.661C206.366 133.681 203.949 134.051 201.147 133.772C198.409 133.499 196.113 132.659 194.259 131.252C192.412 129.781 191.081 127.976 190.265 125.837C189.449 123.697 189.159 121.449 189.394 119.093L189.689 116.132C189.924 113.775 190.649 111.661 191.865 109.788C193.087 107.852 194.746 106.377 196.84 105.364C198.942 104.287 201.361 103.885 204.1 104.158C206.902 104.438 209.195 105.31 210.978 106.774C212.832 108.181 214.167 109.954 214.982 112.093C215.868 114.175 216.194 116.395 215.959 118.751ZM238.06 108.027L240.381 109.898L198.34 169.67L195.913 167.885L238.06 108.027ZM210.141 116.145C210.414 113.406 209.996 111.146 208.887 109.363C207.779 107.58 206.11 106.578 203.881 106.355C201.652 106.133 199.85 106.79 198.475 108.325C197.1 109.86 196.276 111.997 196.003 114.735L195.307 121.709C195.028 124.511 195.411 126.8 196.456 128.576C197.501 130.353 199.137 131.352 201.366 131.574C203.595 131.797 205.429 131.143 206.868 129.615C208.307 128.086 209.166 125.92 209.445 123.118L210.141 116.145ZM247.207 158.527L246.911 161.489C246.676 163.845 245.916 165.988 244.63 167.918C243.408 169.854 241.746 171.361 239.645 172.438C237.614 173.457 235.197 173.827 232.395 173.548C229.657 173.275 227.361 172.435 225.507 171.028C223.66 169.558 222.329 167.753 221.513 165.613C220.697 163.474 220.407 161.226 220.642 158.869L220.937 155.908C221.172 153.552 221.897 151.437 223.113 149.565C224.335 147.628 225.993 146.154 228.088 145.141C230.19 144.064 232.609 143.662 235.348 143.935C238.15 144.214 240.443 145.086 242.226 146.55C244.08 147.957 245.414 149.73 246.23 151.87C247.116 153.952 247.441 156.171 247.207 158.527ZM241.388 155.921C241.661 153.183 241.244 150.922 240.135 149.139C239.026 147.357 237.358 146.354 235.129 146.132C232.9 145.91 231.098 146.566 229.723 148.101C228.348 149.636 227.524 151.773 227.25 154.512L226.555 161.485C226.276 164.287 226.659 166.576 227.704 168.353C228.748 170.129 230.385 171.129 232.614 171.351C234.843 171.573 236.677 170.92 238.116 169.391C239.555 167.862 240.414 165.697 240.693 162.895L241.388 155.921Z" fill="#22B8E0"/>
<path d="M99.1034 188.107C98.2506 188.022 97.5092 187.727 96.8792 187.222C96.2491 186.717 95.7801 186.027 95.4722 185.154C95.1643 184.282 95.0698 183.249 95.1886 182.057C95.3089 180.851 95.6082 179.853 96.0867 179.063C96.5703 178.269 97.1725 177.694 97.8932 177.338C98.6144 176.977 99.392 176.838 100.226 176.921C100.862 176.984 101.374 177.145 101.762 177.402C102.151 177.655 102.451 177.944 102.661 178.27C102.872 178.591 103.03 178.889 103.135 179.166L103.241 179.177L103.781 173.764L106.347 174.019L104.903 188.493L102.388 188.242L102.558 186.532L102.403 186.516C102.244 186.767 102.026 187.028 101.746 187.3C101.467 187.568 101.113 187.784 100.682 187.951C100.252 188.117 99.7253 188.169 99.1034 188.107ZM100.026 186.08C100.568 186.134 101.045 186.034 101.455 185.78C101.867 185.521 102.197 185.137 102.448 184.629C102.698 184.122 102.859 183.517 102.929 182.815C102.999 182.112 102.961 181.492 102.814 180.955C102.673 180.417 102.426 179.985 102.073 179.66C101.724 179.335 101.275 179.145 100.723 179.09C100.153 179.033 99.6626 179.134 99.2514 179.393C98.8402 179.652 98.5119 180.033 98.2666 180.537C98.0213 181.04 97.865 181.629 97.7979 182.303C97.7302 182.981 97.7664 183.596 97.9065 184.148C98.0518 184.696 98.3 185.141 98.6511 185.486C99.0074 185.826 99.4658 186.024 100.026 186.08ZM112.414 189.456C111.326 189.347 110.408 189.028 109.662 188.496C108.921 187.961 108.38 187.255 108.039 186.379C107.698 185.498 107.585 184.49 107.698 183.354C107.809 182.238 108.119 181.279 108.627 180.478C109.14 179.672 109.805 179.072 110.62 178.678C111.435 178.279 112.361 178.131 113.397 178.234C114.067 178.301 114.687 178.472 115.259 178.748C115.836 179.02 116.331 179.402 116.743 179.895C117.161 180.389 117.467 180.995 117.661 181.714C117.857 182.428 117.907 183.261 117.812 184.213L117.734 184.997L108.836 184.11L109.008 182.386L115.453 183.028C115.497 182.538 115.435 182.091 115.266 181.689C115.097 181.282 114.837 180.949 114.487 180.691C114.142 180.433 113.724 180.279 113.234 180.23C112.711 180.178 112.239 180.26 111.818 180.475C111.397 180.685 111.056 180.984 110.793 181.372C110.536 181.755 110.381 182.19 110.328 182.674L110.178 184.18C110.115 184.811 110.177 185.364 110.362 185.84C110.549 186.31 110.837 186.686 111.228 186.968C111.619 187.245 112.092 187.411 112.648 187.467C113.02 187.504 113.362 187.485 113.674 187.412C113.987 187.334 114.264 187.202 114.506 187.017C114.748 186.831 114.941 186.591 115.085 186.296L117.447 186.803C117.233 187.419 116.89 187.942 116.419 188.371C115.954 188.795 115.38 189.105 114.7 189.298C114.019 189.488 113.258 189.54 112.414 189.456ZM128.372 191.026C127.52 190.941 126.778 190.645 126.148 190.14C125.518 189.635 125.049 188.946 124.741 188.073C124.433 187.2 124.339 186.167 124.458 184.975C124.578 183.769 124.877 182.771 125.356 181.981C125.839 181.187 126.441 180.612 127.162 180.256C127.883 179.895 128.661 179.756 129.495 179.839C130.131 179.902 130.643 180.063 131.031 180.32C131.42 180.573 131.72 180.863 131.93 181.188C132.141 181.509 132.299 181.808 132.404 182.085L132.51 182.095L133.05 176.682L135.615 176.938L134.172 191.411L131.656 191.16L131.827 189.45L131.671 189.435C131.513 189.685 131.295 189.947 131.015 190.219C130.736 190.486 130.382 190.703 129.951 190.869C129.521 191.035 128.994 191.088 128.372 191.026ZM129.295 188.998C129.837 189.052 130.314 188.952 130.724 188.698C131.136 188.439 131.466 188.056 131.717 187.548C131.967 187.04 132.128 186.435 132.198 185.733C132.268 185.031 132.229 184.411 132.083 183.873C131.942 183.335 131.695 182.904 131.342 182.578C130.993 182.253 130.544 182.063 129.992 182.008C129.422 181.952 128.932 182.052 128.52 182.311C128.109 182.57 127.781 182.951 127.536 183.455C127.29 183.959 127.134 184.547 127.067 185.221C126.999 185.9 127.035 186.515 127.175 187.066C127.321 187.614 127.569 188.06 127.92 188.404C128.276 188.744 128.735 188.942 129.295 188.998ZM141.683 192.374C140.595 192.266 139.677 191.946 138.931 191.415C138.19 190.879 137.649 190.173 137.308 189.297C136.967 188.416 136.854 187.408 136.967 186.272C137.078 185.156 137.388 184.197 137.896 183.396C138.409 182.591 139.074 181.991 139.888 181.596C140.704 181.197 141.63 181.049 142.666 181.152C143.335 181.219 143.956 181.39 144.528 181.666C145.105 181.938 145.6 182.32 146.012 182.813C146.43 183.307 146.735 183.913 146.93 184.632C147.126 185.346 147.176 186.179 147.081 187.131L147.003 187.915L138.105 187.028L138.277 185.304L144.722 185.947C144.766 185.456 144.704 185.01 144.535 184.607C144.366 184.2 144.106 183.868 143.756 183.609C143.411 183.351 142.993 183.198 142.503 183.149C141.98 183.097 141.508 183.178 141.087 183.393C140.666 183.603 140.325 183.902 140.062 184.29C139.805 184.674 139.65 185.108 139.597 185.593L139.447 187.098C139.384 187.729 139.445 188.283 139.631 188.758C139.817 189.228 140.106 189.605 140.497 189.886C140.888 190.163 141.361 190.329 141.917 190.385C142.289 190.422 142.631 190.404 142.943 190.33C143.256 190.252 143.533 190.12 143.775 189.935C144.017 189.75 144.21 189.509 144.354 189.214L146.716 189.721C146.502 190.337 146.159 190.86 145.688 191.289C145.223 191.714 144.649 192.023 143.969 192.217C143.288 192.406 142.527 192.458 141.683 192.374ZM158.071 185.729L155.714 185.751C155.671 185.508 155.578 185.275 155.434 185.052C155.294 184.828 155.094 184.64 154.834 184.485C154.573 184.331 154.245 184.234 153.849 184.194C153.317 184.141 152.858 184.212 152.472 184.407C152.091 184.602 151.884 184.883 151.852 185.251C151.816 185.567 151.906 185.835 152.122 186.056C152.342 186.278 152.722 186.48 153.26 186.662L155.073 187.243C156.078 187.566 156.806 187.994 157.257 188.524C157.714 189.055 157.905 189.709 157.833 190.487C157.76 191.17 157.499 191.753 157.051 192.236C156.609 192.716 156.024 193.066 155.298 193.289C154.571 193.512 153.756 193.578 152.851 193.488C151.523 193.355 150.481 192.971 149.726 192.334C148.971 191.692 148.566 190.864 148.51 189.85L151.029 189.859C151.093 190.36 151.297 190.754 151.639 191.04C151.982 191.326 152.448 191.499 153.036 191.558C153.644 191.618 154.144 191.542 154.537 191.329C154.934 191.116 155.151 190.826 155.187 190.459C155.218 190.148 155.124 189.879 154.904 189.653C154.688 189.426 154.336 189.234 153.848 189.076L152.035 188.503C151.015 188.182 150.281 187.74 149.833 187.177C149.385 186.609 149.203 185.929 149.287 185.138C149.349 184.469 149.588 183.907 150.004 183.454C150.426 182.996 150.98 182.666 151.666 182.463C152.358 182.256 153.137 182.196 154.004 182.283C155.276 182.409 156.25 182.78 156.927 183.395C157.608 184.01 157.989 184.788 158.071 185.729ZM164.332 194.632C163.248 194.524 162.341 194.194 161.611 193.64C160.886 193.087 160.356 192.371 160.02 191.49C159.69 190.606 159.579 189.614 159.688 188.516C159.798 187.414 160.107 186.462 160.616 185.661C161.124 184.855 161.788 184.255 162.608 183.861C163.433 183.463 164.375 183.317 165.435 183.422C166.316 183.51 167.08 183.75 167.726 184.143C168.377 184.532 168.876 185.041 169.222 185.67C169.569 186.295 169.732 187.001 169.711 187.788L167.265 187.545C167.219 187.012 167.027 186.553 166.689 186.167C166.357 185.777 165.882 185.551 165.265 185.489C164.742 185.437 164.268 185.533 163.844 185.776C163.421 186.015 163.072 186.384 162.799 186.885C162.53 187.387 162.359 188.002 162.286 188.733C162.213 189.472 162.258 190.119 162.421 190.673C162.585 191.223 162.849 191.66 163.211 191.987C163.579 192.309 164.029 192.497 164.561 192.55C164.938 192.587 165.282 192.55 165.593 192.438C165.909 192.322 166.182 192.138 166.412 191.885C166.641 191.632 166.814 191.313 166.928 190.93L169.373 191.174C169.235 191.936 168.941 192.594 168.491 193.148C168.041 193.698 167.463 194.107 166.756 194.374C166.049 194.637 165.241 194.723 164.332 194.632ZM178.478 191.218L179.105 184.928L181.663 185.183L180.581 196.038L178.101 195.791L178.293 193.862L178.18 193.85C177.874 194.434 177.422 194.891 176.823 195.221C176.228 195.552 175.523 195.677 174.708 195.596C173.997 195.525 173.384 195.304 172.869 194.934C172.359 194.559 171.981 194.053 171.735 193.415C171.49 192.772 171.411 192.017 171.497 191.15L172.186 184.238L174.745 184.493L174.095 191.009C174.026 191.697 174.16 192.262 174.497 192.705C174.833 193.148 175.308 193.4 175.92 193.461C176.297 193.499 176.672 193.443 177.043 193.295C177.415 193.146 177.732 192.902 177.994 192.561C178.262 192.217 178.423 191.769 178.478 191.218ZM187.996 196.992C186.908 196.883 185.991 196.563 185.244 196.032C184.503 195.497 183.962 194.791 183.621 193.915C183.281 193.034 183.167 192.026 183.28 190.89C183.392 189.773 183.701 188.815 184.209 188.014C184.723 187.208 185.387 186.608 186.202 186.214C187.017 185.814 187.943 185.666 188.98 185.77C189.649 185.836 190.269 186.008 190.841 186.284C191.419 186.555 191.913 186.938 192.326 187.431C192.743 187.925 193.049 188.531 193.244 189.25C193.439 189.964 193.489 190.797 193.394 191.749L193.316 192.533L184.418 191.646L184.59 189.922L191.036 190.564C191.08 190.074 191.017 189.627 190.848 189.225C190.679 188.818 190.42 188.485 190.07 188.227C189.724 187.969 189.306 187.815 188.816 187.766C188.293 187.714 187.821 187.796 187.4 188.01C186.98 188.221 186.638 188.52 186.376 188.908C186.119 189.291 185.964 189.725 185.91 190.21L185.76 191.716C185.697 192.347 185.759 192.9 185.945 193.375C186.131 193.846 186.419 194.222 186.81 194.504C187.201 194.781 187.675 194.947 188.231 195.002C188.603 195.039 188.945 195.021 189.257 194.948C189.569 194.869 189.846 194.738 190.088 194.552C190.33 194.367 190.523 194.127 190.667 193.832L193.029 194.339C192.815 194.955 192.473 195.478 192.002 195.907C191.536 196.331 190.963 196.64 190.282 196.834C189.602 197.023 188.84 197.076 187.996 196.992ZM198.201 191.371L197.567 197.732L195.009 197.477L196.091 186.622L198.536 186.865L198.353 188.71L198.48 188.723C198.79 188.14 199.236 187.696 199.819 187.393C200.406 187.09 201.104 186.979 201.915 187.059C202.664 187.134 203.3 187.359 203.824 187.735C204.353 188.111 204.74 188.619 204.986 189.257C205.236 189.896 205.316 190.648 205.225 191.515L204.536 198.427L201.977 198.172L202.627 191.656C202.699 190.93 202.567 190.344 202.231 189.896C201.9 189.449 201.404 189.193 200.745 189.127C200.297 189.082 199.889 189.141 199.521 189.305C199.158 189.463 198.859 189.717 198.624 190.065C198.395 190.413 198.254 190.848 198.201 191.371ZM213.639 188.371L213.442 190.35L207.201 189.728L207.399 187.749L213.639 188.371ZM209.199 185.302L211.757 185.557L210.741 195.748C210.707 196.092 210.732 196.361 210.818 196.555C210.908 196.745 211.037 196.881 211.205 196.965C211.373 197.048 211.563 197.1 211.775 197.121C211.935 197.137 212.082 197.14 212.216 197.13C212.355 197.12 212.461 197.109 212.534 197.097L212.765 199.14C212.624 199.174 212.423 199.206 212.163 199.237C211.908 199.269 211.598 199.271 211.235 199.244C210.592 199.199 210.024 199.045 209.532 198.782C209.04 198.514 208.666 198.139 208.409 197.657C208.158 197.175 208.068 196.595 208.14 195.917L209.199 185.302ZM219.294 200.112C218.234 200.007 217.338 199.682 216.607 199.138C215.876 198.594 215.338 197.881 214.993 197C214.653 196.119 214.539 195.118 214.65 193.996C214.762 192.875 215.072 191.914 215.58 191.113C216.093 190.312 216.761 189.717 217.585 189.328C218.409 188.94 219.351 188.798 220.411 188.904C221.471 189.009 222.367 189.334 223.098 189.878C223.829 190.422 224.364 191.137 224.704 192.022C225.049 192.909 225.165 193.912 225.053 195.034C224.941 196.155 224.629 197.114 224.117 197.909C223.609 198.706 222.944 199.298 222.12 199.687C221.296 200.076 220.354 200.218 219.294 200.112ZM219.512 198.064C220.087 198.121 220.583 198.012 221.001 197.734C221.419 197.453 221.75 197.052 221.992 196.534C222.238 196.016 222.395 195.428 222.46 194.768C222.527 194.104 222.49 193.493 222.35 192.937C222.216 192.376 221.971 191.917 221.617 191.558C221.263 191.199 220.798 190.991 220.223 190.933C219.634 190.875 219.128 190.986 218.705 191.267C218.287 191.549 217.954 191.951 217.707 192.474C217.465 192.992 217.311 193.584 217.245 194.248C217.179 194.908 217.214 195.515 217.348 196.071C217.488 196.628 217.735 197.085 218.089 197.444C218.449 197.799 218.923 198.005 219.512 198.064ZM100.628 205.762L99.9941 212.123L97.4357 211.867L98.8788 197.394L101.381 197.643L100.836 203.106L100.963 203.119C101.279 202.532 101.72 202.088 102.288 201.788C102.861 201.483 103.562 201.372 104.391 201.455C105.145 201.53 105.786 201.753 106.315 202.125C106.845 202.497 107.232 203.002 107.478 203.64C107.728 204.279 107.81 205.036 107.722 205.913L107.033 212.824L104.475 212.569L105.124 206.053C105.197 205.323 105.065 204.736 104.729 204.294C104.397 203.847 103.895 203.59 103.221 203.522C102.769 203.477 102.354 203.536 101.976 203.698C101.603 203.856 101.297 204.109 101.058 204.456C100.824 204.804 100.68 205.239 100.628 205.762ZM112.743 213.615C112.055 213.546 111.447 213.362 110.921 213.062C110.399 212.758 110.002 212.347 109.73 211.83C109.463 211.313 109.365 210.699 109.436 209.988C109.497 209.375 109.66 208.88 109.926 208.502C110.192 208.124 110.533 207.834 110.948 207.633C111.363 207.432 111.822 207.294 112.324 207.221C112.831 207.143 113.352 207.102 113.885 207.098C114.528 207.095 115.049 207.088 115.45 207.076C115.852 207.059 116.148 207.002 116.338 206.907C116.533 206.808 116.643 206.635 116.668 206.39L116.672 206.348C116.725 205.816 116.608 205.388 116.322 205.064C116.035 204.741 115.595 204.549 115.001 204.49C114.375 204.427 113.864 204.515 113.469 204.751C113.079 204.988 112.802 205.287 112.638 205.646L110.283 205.069C110.537 204.428 110.903 203.908 111.381 203.508C111.859 203.104 112.422 202.822 113.071 202.663C113.72 202.499 114.424 202.455 115.183 202.531C115.706 202.583 116.22 202.696 116.726 202.87C117.232 203.045 117.685 203.294 118.086 203.62C118.487 203.941 118.793 204.354 119.004 204.861C119.22 205.367 119.292 205.981 119.22 206.702L118.496 213.967L116.037 213.722L116.185 212.231L116.101 212.222C115.915 212.508 115.668 212.769 115.359 213.005C115.055 213.236 114.683 213.411 114.243 213.529C113.808 213.643 113.308 213.671 112.743 213.615ZM113.594 211.801C114.108 211.852 114.563 211.795 114.96 211.63C115.358 211.461 115.675 211.216 115.911 210.897C116.153 210.579 116.293 210.219 116.333 209.819L116.461 208.54C116.374 208.598 116.231 208.645 116.032 208.683C115.838 208.72 115.621 208.749 115.382 208.768C115.142 208.786 114.905 208.801 114.671 208.811C114.436 208.821 114.233 208.829 114.061 208.836C113.675 208.85 113.325 208.9 113.011 208.988C112.698 209.076 112.444 209.217 112.248 209.412C112.053 209.601 111.939 209.861 111.906 210.191C111.859 210.662 111.996 211.035 112.316 211.31C112.636 211.584 113.062 211.748 113.594 211.801ZM130.444 207.093L128.087 207.115C128.044 206.873 127.951 206.64 127.807 206.416C127.667 206.193 127.467 206.004 127.207 205.85C126.946 205.695 126.618 205.598 126.222 205.559C125.69 205.506 125.231 205.576 124.845 205.771C124.464 205.966 124.257 206.248 124.225 206.616C124.189 206.931 124.279 207.199 124.495 207.421C124.715 207.643 125.095 207.845 125.633 208.027L127.446 208.607C128.451 208.931 129.179 209.358 129.63 209.888C130.087 210.419 130.278 211.074 130.206 211.851C130.133 212.534 129.872 213.117 129.424 213.601C128.982 214.08 128.397 214.431 127.671 214.654C126.944 214.876 126.129 214.942 125.224 214.852C123.896 214.72 122.854 214.335 122.099 213.698C121.344 213.057 120.939 212.229 120.883 211.215L123.402 211.223C123.466 211.724 123.67 212.118 124.012 212.404C124.355 212.691 124.821 212.863 125.409 212.922C126.017 212.983 126.517 212.906 126.91 212.693C127.307 212.481 127.524 212.191 127.56 211.823C127.591 211.512 127.497 211.244 127.277 211.017C127.061 210.791 126.709 210.599 126.221 210.441L124.408 209.867C123.388 209.547 122.654 209.105 122.206 208.541C121.758 207.973 121.576 207.294 121.66 206.503C121.722 205.833 121.961 205.272 122.377 204.819C122.799 204.361 123.353 204.031 124.039 203.828C124.731 203.621 125.51 203.561 126.377 203.647C127.649 203.774 128.623 204.145 129.3 204.759C129.981 205.374 130.362 206.152 130.444 207.093ZM138.494 204.998L138.297 206.977L132.056 206.355L132.253 204.376L138.494 204.998ZM134.053 201.929L136.612 202.184L135.596 212.375C135.561 212.719 135.587 212.988 135.672 213.182C135.763 213.371 135.892 213.508 136.06 213.591C136.227 213.675 136.417 213.727 136.629 213.748C136.789 213.764 136.937 213.767 137.071 213.756C137.21 213.747 137.316 213.736 137.388 213.724L137.62 215.767C137.479 215.8 137.278 215.833 137.018 215.864C136.763 215.896 136.453 215.898 136.089 215.871C135.447 215.826 134.879 215.672 134.387 215.409C133.895 215.141 133.521 214.766 133.264 214.283C133.012 213.801 132.923 213.222 132.995 212.544L134.053 201.929ZM142.653 216.597C141.965 216.528 141.358 216.344 140.831 216.044C140.309 215.74 139.913 215.329 139.641 214.812C139.373 214.295 139.275 213.681 139.346 212.97C139.407 212.357 139.571 211.862 139.837 211.484C140.103 211.106 140.443 210.817 140.858 210.615C141.273 210.414 141.732 210.277 142.234 210.203C142.742 210.125 143.262 210.084 143.795 210.08C144.438 210.078 144.96 210.07 145.361 210.058C145.762 210.041 146.058 209.985 146.248 209.889C146.444 209.79 146.554 209.618 146.578 209.373L146.582 209.33C146.635 208.798 146.519 208.37 146.232 208.046C145.946 207.723 145.505 207.531 144.912 207.472C144.285 207.41 143.774 207.497 143.38 207.733C142.99 207.97 142.713 208.269 142.548 208.628L140.193 208.051C140.448 207.41 140.813 206.89 141.291 206.49C141.769 206.086 142.333 205.804 142.981 205.645C143.63 205.481 144.334 205.437 145.093 205.513C145.616 205.565 146.13 205.678 146.636 205.853C147.142 206.027 147.596 206.277 147.996 206.602C148.397 206.923 148.703 207.336 148.915 207.843C149.131 208.35 149.203 208.963 149.131 209.684L148.406 216.949L145.947 216.704L146.096 215.213L146.011 215.205C145.825 215.491 145.578 215.751 145.269 215.987C144.965 216.218 144.593 216.393 144.153 216.511C143.718 216.625 143.218 216.653 142.653 216.597ZM143.505 214.783C144.018 214.835 144.474 214.778 144.871 214.613C145.268 214.443 145.585 214.199 145.822 213.88C146.063 213.561 146.203 213.201 146.243 212.801L146.371 211.522C146.284 211.58 146.141 211.627 145.943 211.665C145.749 211.702 145.532 211.731 145.292 211.75C145.052 211.769 144.815 211.783 144.581 211.793C144.347 211.803 144.144 211.811 143.972 211.818C143.585 211.832 143.235 211.882 142.922 211.97C142.608 212.058 142.354 212.199 142.158 212.394C141.963 212.584 141.85 212.843 141.817 213.173C141.77 213.644 141.906 214.017 142.226 214.292C142.546 214.566 142.972 214.73 143.505 214.783ZM160.7 218.389C159.612 218.281 158.694 217.961 157.948 217.43C157.206 216.894 156.665 216.188 156.324 215.312C155.984 214.431 155.87 213.423 155.984 212.288C156.095 211.171 156.405 210.212 156.913 209.411C157.426 208.606 158.09 208.006 158.905 207.611C159.721 207.212 160.647 207.064 161.683 207.167C162.352 207.234 162.973 207.405 163.545 207.681C164.122 207.953 164.617 208.335 165.029 208.828C165.446 209.322 165.752 209.928 165.947 210.647C166.142 211.361 166.192 212.194 166.098 213.146L166.019 213.93L157.122 213.043L157.294 211.319L163.739 211.962C163.783 211.471 163.721 211.025 163.551 210.622C163.382 210.215 163.123 209.883 162.773 209.624C162.427 209.366 162.01 209.213 161.52 209.164C160.997 209.112 160.525 209.193 160.104 209.408C159.683 209.618 159.341 209.917 159.079 210.305C158.822 210.689 158.667 211.123 158.614 211.608L158.464 213.113C158.401 213.744 158.462 214.298 158.648 214.773C158.834 215.244 159.123 215.62 159.513 215.901C159.904 216.178 160.378 216.344 160.934 216.4C161.306 216.437 161.648 216.419 161.96 216.345C162.272 216.267 162.55 216.135 162.792 215.95C163.034 215.765 163.227 215.524 163.37 215.229L165.732 215.736C165.519 216.352 165.176 216.875 164.705 217.304C164.239 217.729 163.666 218.038 162.985 218.232C162.305 218.421 161.543 218.473 160.7 218.389ZM171.714 204.656L170.271 219.129L167.712 218.874L169.155 204.401L171.714 204.656ZM183.132 220.69C181.968 220.574 180.999 220.18 180.224 219.508C179.454 218.832 178.9 217.913 178.564 216.751C178.233 215.586 178.146 214.214 178.304 212.636C178.466 211.058 178.823 209.737 179.377 208.674C179.935 207.607 180.658 206.823 181.545 206.321C182.438 205.82 183.463 205.627 184.622 205.743C185.781 205.858 186.749 206.25 187.524 206.917C188.3 207.585 188.854 208.496 189.186 209.652C189.523 210.809 189.613 212.174 189.456 213.748C189.298 215.331 188.939 216.661 188.38 217.737C187.826 218.81 187.102 219.599 186.21 220.105C185.322 220.611 184.296 220.806 183.132 220.69ZM183.353 218.478C184.257 218.568 185.015 218.194 185.627 217.356C186.244 216.513 186.639 215.223 186.813 213.484C186.927 212.335 186.903 211.357 186.741 210.551C186.579 209.745 186.298 209.122 185.899 208.682C185.501 208.238 185.003 207.986 184.405 207.927C183.505 207.837 182.749 208.214 182.136 209.057C181.525 209.895 181.13 211.176 180.954 212.9C180.834 214.054 180.853 215.036 181.01 215.846C181.172 216.657 181.452 217.284 181.85 217.729C182.249 218.168 182.749 218.418 183.353 218.478ZM196.364 221.931C195.672 221.857 195.008 221.669 194.372 221.368C193.736 221.062 193.181 220.614 192.707 220.024C192.234 219.43 191.886 218.67 191.664 217.744C191.443 216.813 191.401 215.683 191.538 214.355C191.662 213.116 191.904 212.024 192.264 211.08C192.625 210.136 193.086 209.354 193.647 208.734C194.209 208.11 194.857 207.655 195.589 207.372C196.326 207.088 197.128 206.99 197.995 207.076C198.905 207.167 199.692 207.426 200.359 207.854C201.03 208.283 201.551 208.83 201.922 209.495C202.294 210.155 202.493 210.879 202.52 211.667L199.94 211.41C199.863 210.841 199.637 210.371 199.26 210C198.888 209.625 198.391 209.407 197.769 209.345C196.766 209.245 195.949 209.603 195.321 210.421C194.697 211.239 194.306 212.409 194.15 213.93L194.249 213.94C194.521 213.548 194.856 213.223 195.253 212.962C195.65 212.702 196.087 212.515 196.565 212.401C197.048 212.282 197.549 212.249 198.067 212.301C198.915 212.385 199.656 212.664 200.289 213.136C200.927 213.609 201.408 214.221 201.733 214.972C202.059 215.718 202.173 216.548 202.077 217.461C201.987 218.414 201.685 219.247 201.171 219.962C200.658 220.672 199.989 221.205 199.163 221.56C198.338 221.916 197.405 222.039 196.364 221.931ZM196.562 219.809C197.075 219.86 197.547 219.781 197.977 219.572C198.407 219.363 198.761 219.058 199.039 218.657C199.317 218.257 199.48 217.792 199.528 217.264C199.584 216.746 199.518 216.266 199.329 215.824C199.144 215.382 198.864 215.019 198.488 214.734C198.112 214.449 197.667 214.281 197.154 214.23C196.772 214.192 196.409 214.229 196.065 214.342C195.72 214.456 195.413 214.629 195.142 214.864C194.871 215.094 194.649 215.372 194.473 215.697C194.303 216.018 194.197 216.369 194.154 216.75C194.109 217.255 194.18 217.73 194.369 218.177C194.557 218.624 194.842 218.995 195.222 219.29C195.601 219.585 196.048 219.758 196.562 219.809ZM211.436 207.931L205.043 224.795L202.803 224.571L209.195 207.707L211.436 207.931ZM216.704 223.959C215.686 223.857 214.799 223.593 214.042 223.165C213.29 222.738 212.717 222.191 212.322 221.523C211.927 220.856 211.756 220.113 211.809 219.295L214.466 219.56C214.45 219.954 214.546 220.308 214.752 220.624C214.959 220.935 215.25 221.19 215.625 221.389C216 221.588 216.431 221.712 216.916 221.76C217.434 221.812 217.902 221.768 218.321 221.629C218.74 221.485 219.078 221.262 219.337 220.959C219.595 220.657 219.743 220.293 219.781 219.869C219.829 219.431 219.755 219.034 219.557 218.676C219.36 218.318 219.051 218.024 218.632 217.791C218.217 217.56 217.704 217.413 217.091 217.352L215.812 217.225L216.014 215.204L217.293 215.331C217.797 215.381 218.246 215.338 218.64 215.201C219.039 215.065 219.363 214.85 219.611 214.556C219.86 214.257 220.003 213.898 220.04 213.478C220.085 213.069 220.029 212.704 219.871 212.383C219.717 212.059 219.48 211.795 219.157 211.591C218.84 211.388 218.455 211.264 218.003 211.219C217.56 211.175 217.142 211.214 216.749 211.337C216.356 211.46 216.029 211.658 215.769 211.932C215.509 212.201 215.352 212.537 215.297 212.941L212.774 212.689C212.874 211.881 213.178 211.193 213.687 210.625C214.2 210.053 214.851 209.632 215.639 209.364C216.428 209.09 217.291 209 218.229 209.094C219.195 209.19 220.015 209.455 220.69 209.889C221.371 210.318 221.876 210.856 222.207 211.503C222.537 212.15 222.666 212.841 222.593 213.576C222.516 214.391 222.208 215.05 221.667 215.553C221.132 216.057 220.465 216.354 219.666 216.446L219.654 216.559C220.658 216.802 221.4 217.256 221.881 217.923C222.367 218.585 222.562 219.368 222.467 220.272C222.387 221.083 222.083 221.785 221.558 222.38C221.037 222.97 220.356 223.407 219.514 223.689C218.677 223.972 217.74 224.062 216.704 223.959Z" fill="#43C4E6"/>
<defs>
<radialGradient id="paint0_radial_1170_260" cx="0" cy="0" r="1" gradientUnits="userSpaceOnUse" gradientTransform="translate(162.601 158.57) rotate(90) scale(144.5 149)">
<stop offset="0.566497"/>
<stop offset="0.816505" stop-color="#CB8DF1" stop-opacity="0.55"/>
<stop offset="0.894633" stop-color="#E9E0EE" stop-opacity="0.95"/>
<stop offset="0.998803" stop-color="#CB8DF1" stop-opacity="0.5"/>
</radialGradient>
</defs>
</svg>
