<svg width="42" height="42" viewBox="0 0 42 42" fill="none" xmlns="http://www.w3.org/2000/svg">
<path d="M14 22V6C14 3.8 15.8 2 18 2H36C38.2 2 40 3.8 40 6V18H33.14L30.58 14.52C30.5551 14.4786 30.5199 14.4443 30.4779 14.4205C30.4358 14.3967 30.3883 14.3842 30.34 14.3842C30.2917 14.3842 30.2442 14.3967 30.2021 14.4205C30.1601 14.4443 30.1249 14.4786 30.1 14.52L26.12 20C26 20.12 25.76 20.14 25.64 20L22.78 16.5C22.7515 16.467 22.7162 16.4405 22.6765 16.4223C22.6368 16.4042 22.5936 16.3948 22.55 16.3948C22.5064 16.3948 22.4632 16.4042 22.4235 16.4223C22.3839 16.4405 22.3485 16.467 22.32 16.5L18.1 21.82C17.94 22 18.08 22.3 18.32 22.3H31V26H18C15.78 26 14 24.22 14 22ZM8 40V38H4V40H0V0H4V2H8V0H12.78C11.08 1.48 10 3.6 10 6V22C10 26.42 13.58 30 18 30H27.4C25.34 31.66 24 34.16 24 37C24 38.06 24.22 39.06 24.56 40H8ZM4 10H8V6H4V10ZM4 18H8V14H4V18ZM4 26H8V22H4V26ZM8 34V30H4V34H8ZM42 22V26H38V37C38 38.3261 37.4732 39.5979 36.5355 40.5355C35.5979 41.4732 34.3261 42 33 42C31.6739 42 30.4021 41.4732 29.4645 40.5355C28.5268 39.5979 28 38.3261 28 37C28.0004 36.17 28.2075 35.3532 28.6024 34.6232C28.9974 33.8932 29.5679 33.273 30.2625 32.8186C30.957 32.3641 31.7538 32.0898 32.5808 32.0202C33.4079 31.9506 34.2393 32.088 35 32.42V22H42Z" fill="white"/>
</svg>
